<svg width="88" height="52" viewBox="0 0 88 52" fill="none" xmlns="http://www.w3.org/2000/svg">
<rect width="88" height="52" rx="8" fill="#5DB5C0"/>
<path fill-rule="evenodd" clip-rule="evenodd" d="M44.0001 30.3254C42.604 31.9072 40.5614 32.9048 38.2858 32.9048C34.0779 32.9048 30.6667 29.4937 30.6667 25.2858C30.6667 21.0779 34.0779 17.6667 38.2858 17.6667C40.5614 17.6667 42.604 18.6644 44.0001 20.2461C45.3962 18.6644 47.4388 17.6667 49.7144 17.6667C53.9223 17.6667 57.3334 21.0779 57.3334 25.2858C57.3334 29.4937 53.9223 32.9048 49.7144 32.9048C47.4388 32.9048 45.3962 31.9072 44.0001 30.3254ZM39.128 28.1429C39.4073 28.1429 39.67 28.0873 39.9164 27.9759C40.1627 27.8645 40.2859 27.7049 40.2859 27.4972C40.2859 27.3745 40.2398 27.2682 40.1476 27.178C40.0553 27.0879 39.95 27.0429 39.8314 27.0429C39.7866 27.0429 39.6779 27.0685 39.5054 27.1199C39.3328 27.1712 39.1715 27.1968 39.0213 27.1968C38.9185 27.1968 38.7091 27.1774 38.393 27.1386C38.0768 27.0998 37.8305 27.0804 37.654 27.0804C37.5275 27.0804 37.4109 27.0873 37.3042 27.1011C37.1975 27.1148 37.1014 27.1305 37.0158 27.148C36.9301 27.1655 36.8439 27.1843 36.7569 27.2043C37.0546 26.8865 37.2634 26.6218 37.3833 26.4103C37.5031 26.1988 37.5631 25.9666 37.5631 25.7138V25.65H38.2625C38.389 25.65 38.4918 25.6174 38.5708 25.5524C38.6498 25.4873 38.6893 25.4022 38.6893 25.2971C38.6893 25.1444 38.6301 25.0474 38.5115 25.0061C38.393 24.9648 38.2257 24.9441 38.0096 24.9441H37.4208C37.3418 24.6989 37.2865 24.5143 37.2548 24.3904C37.2232 24.2665 37.2074 24.1332 37.2074 23.9905C37.2074 23.7552 37.2818 23.5631 37.4307 23.4142C37.5795 23.2653 37.7752 23.1908 38.0175 23.1908C38.2415 23.1908 38.42 23.2528 38.553 23.3767C38.686 23.5006 38.7908 23.6927 38.8672 23.953C38.9515 24.2233 39.1214 24.3584 39.377 24.3584C39.5219 24.3584 39.6444 24.3109 39.7445 24.2158C39.8446 24.1207 39.8946 24.0118 39.8946 23.8891C39.8946 23.5462 39.7418 23.2234 39.4362 22.9205C39.2571 22.7453 39.0516 22.6195 38.8198 22.5432C38.5879 22.4668 38.31 22.4287 37.9859 22.4287C37.6197 22.4287 37.2944 22.4969 37.0098 22.6333C36.7253 22.7697 36.5066 22.958 36.3538 23.1983C36.201 23.4386 36.1246 23.7127 36.1246 24.0205C36.1246 24.2458 36.1892 24.5537 36.3183 24.9441H36.0851C35.7505 24.9441 35.5832 25.0668 35.5832 25.3121C35.5832 25.4472 35.6326 25.5373 35.7314 25.5824C35.8302 25.6275 35.9771 25.65 36.1721 25.65H36.504C36.5303 25.8052 36.5435 25.9153 36.5435 25.9804C36.5435 26.1681 36.4981 26.3589 36.4072 26.5529C36.3163 26.7469 36.2037 26.8977 36.0693 27.0053C35.9218 27.1255 35.8111 27.2225 35.7374 27.2963C35.6636 27.3701 35.6096 27.4359 35.5753 27.4934C35.5411 27.551 35.524 27.6061 35.524 27.6586C35.524 27.7988 35.572 27.912 35.6682 27.9984C35.7644 28.0847 35.8625 28.1279 35.9626 28.1279C36.0364 28.1279 36.1767 28.0879 36.3835 28.0078C36.5903 27.9277 36.7358 27.8726 36.8201 27.8426C36.9045 27.8126 37.0019 27.7975 37.1126 27.7975C37.2153 27.7975 37.3036 27.8025 37.3773 27.8126C37.4511 27.8226 37.513 27.8351 37.5631 27.8501C37.6131 27.8651 37.6487 27.8751 37.6698 27.8801C38.4707 28.0553 38.9567 28.1429 39.128 28.1429ZM49.7325 29.0953C49.8268 29.0953 49.8879 29.0595 49.9157 28.9877C49.9435 28.916 49.9574 28.8018 49.9574 28.645V28.243C50.3033 28.2111 50.602 28.1115 50.8535 27.9441C51.1051 27.7767 51.2956 27.5609 51.425 27.2965C51.5544 27.0322 51.6191 26.7486 51.6191 26.4457C51.6191 26.2039 51.5786 25.9814 51.4975 25.7782C51.4165 25.575 51.301 25.4003 51.1511 25.2542C51.0108 25.1134 50.8517 25.0058 50.674 24.9314C50.4962 24.857 50.2573 24.7746 49.9574 24.6843V23.0265C50.2622 23.1354 50.4545 23.3559 50.5343 23.688C50.6044 23.9696 50.758 24.1104 50.995 24.1104C51.1208 24.1104 51.2278 24.0619 51.3161 23.965C51.4044 23.868 51.4486 23.7531 51.4486 23.6203C51.4486 23.5007 51.4189 23.3692 51.3597 23.2257C51.3004 23.0823 51.2164 22.9428 51.1075 22.8073C50.9696 22.6293 50.8082 22.4965 50.6232 22.4088C50.4381 22.3211 50.2162 22.2627 49.9574 22.2334V21.8031C49.9574 21.5852 49.88 21.4763 49.7252 21.4763C49.5728 21.4763 49.4966 21.5879 49.4966 21.811V22.2334C48.996 22.2813 48.6132 22.4513 48.3483 22.7435C48.0835 23.0358 47.9511 23.4104 47.9511 23.8673C47.9511 24.218 48.0188 24.505 48.1542 24.7281C48.2897 24.9513 48.4662 25.1233 48.6839 25.2442C48.9016 25.3651 49.1725 25.4747 49.4966 25.573V27.426C49.3346 27.3756 49.2046 27.3025 49.1066 27.2069C49.0086 27.1112 48.9355 27.0056 48.8871 26.8901C48.8387 26.7745 48.7819 26.6078 48.7166 26.3899C48.6876 26.289 48.6356 26.2106 48.5606 26.1548C48.4856 26.099 48.3937 26.0711 48.2848 26.0711C48.1494 26.0711 48.0363 26.1223 47.9456 26.2245C47.8549 26.3268 47.8096 26.4417 47.8096 26.5692C47.8096 26.7419 47.8434 26.9179 47.9111 27.0973C47.9789 27.2766 48.0835 27.4493 48.225 27.6153C48.3665 27.7814 48.543 27.9202 48.7547 28.0318C48.9663 28.1434 49.2136 28.2164 49.4966 28.251V28.7367C49.4966 28.8589 49.5142 28.9492 49.5492 29.0077C49.5843 29.0661 49.6454 29.0953 49.7325 29.0953ZM49.4967 24.5368C49.2791 24.4492 49.117 24.3515 49.0106 24.2439C48.9042 24.1363 48.8509 23.9776 48.8509 23.7677C48.8509 23.5472 48.9078 23.3825 49.0215 23.2735C49.1351 23.1646 49.2936 23.0769 49.4967 23.0105V24.5368ZM49.9575 25.7204V27.4659C50.2018 27.4128 50.3904 27.3052 50.5235 27.1431C50.6565 26.981 50.723 26.7924 50.723 26.5772C50.723 26.3461 50.6583 26.1674 50.5289 26.0412C50.3995 25.915 50.209 25.8081 49.9575 25.7204Z" fill="white"/>
</svg>
