<svg width="88" height="52" viewBox="0 0 88 52" fill="none" xmlns="http://www.w3.org/2000/svg">
<rect width="88" height="52" rx="8" fill="#85CEFF"/>
<path fill-rule="evenodd" clip-rule="evenodd" d="M32.6667 17.6667C31.5622 17.6667 30.6667 18.5622 30.6667 19.6667V31.963C30.6667 33.0676 31.5622 33.963 32.6667 33.963H55.3334C56.438 33.963 57.3334 33.0676 57.3334 31.963V19.6667C57.3334 18.5622 56.438 17.6667 55.3334 17.6667H32.6667ZM48.6723 23.6245L51.1506 27.3745V23.5898C51.1506 23.3438 51.2034 23.1594 51.309 23.0364C51.4146 22.9134 51.5571 22.8519 51.7365 22.8519C51.9217 22.8519 52.0678 22.9134 52.1749 23.0364C52.2819 23.1594 52.3354 23.3438 52.3354 23.5898V28.5941C52.3354 29.1526 52.104 29.4318 51.641 29.4318C51.5253 29.4318 51.4211 29.4152 51.3285 29.3819C51.2359 29.3486 51.1491 29.2958 51.0681 29.2235C50.9871 29.1511 50.9118 29.0665 50.8424 28.9696C50.7729 28.8726 50.7035 28.7735 50.6341 28.6723L48.2165 24.9657V28.694C48.2165 28.937 48.1601 29.1207 48.0473 29.2452C47.9344 29.3696 47.7897 29.4318 47.6132 29.4318C47.4309 29.4318 47.2848 29.3689 47.1749 29.243C47.0649 29.1171 47.0099 28.9341 47.0099 28.694V23.7851C47.0099 23.5768 47.0331 23.4133 47.0794 23.2946C47.1343 23.1644 47.2255 23.0581 47.3528 22.9756C47.4801 22.8932 47.6176 22.8519 47.7651 22.8519C47.8809 22.8519 47.98 22.8707 48.0624 22.9084C48.1449 22.946 48.2172 22.9966 48.2795 23.0603C48.3417 23.1239 48.4053 23.2064 48.4704 23.3077C48.5355 23.4089 48.6028 23.5146 48.6723 23.6245ZM36.4828 23.6983L37.9237 27.9648L39.3691 23.6679C39.4443 23.4422 39.5007 23.2852 39.5383 23.197C39.5759 23.1087 39.6382 23.0292 39.725 22.9583C39.8118 22.8874 39.9304 22.8519 40.0809 22.8519C40.1908 22.8519 40.2928 22.8794 40.3869 22.9344C40.4809 22.9894 40.5547 23.0624 40.6082 23.1536C40.6617 23.2447 40.6885 23.3366 40.6885 23.4292C40.6885 23.4929 40.6798 23.5616 40.6625 23.6354C40.6451 23.7091 40.6234 23.7815 40.5974 23.8524C40.5713 23.9233 40.5453 23.9963 40.5192 24.0716L38.9784 28.2295C38.9235 28.3887 38.8685 28.5399 38.8135 28.6831C38.7585 28.8263 38.6949 28.9522 38.6225 29.0607C38.5502 29.1692 38.454 29.2582 38.3339 29.3276C38.2138 29.3971 38.067 29.4318 37.8934 29.4318C37.7198 29.4318 37.5729 29.3978 37.4528 29.3298C37.3327 29.2618 37.2358 29.1721 37.162 29.0607C37.0882 28.9493 37.0239 28.8227 36.9689 28.6809C36.9139 28.5392 36.8589 28.3887 36.804 28.2295L35.2892 24.1063C35.2632 24.031 35.2364 23.9573 35.2089 23.8849C35.1814 23.8126 35.1583 23.7345 35.1395 23.6506C35.1206 23.5666 35.1112 23.4957 35.1112 23.4379C35.1112 23.2903 35.1706 23.1558 35.2892 23.0342C35.4078 22.9127 35.5568 22.8519 35.7362 22.8519C35.9562 22.8519 36.1117 22.9192 36.2028 23.0538C36.294 23.1883 36.3873 23.4032 36.4828 23.6983ZM43.8296 26.845H42.6491V28.6462C42.6491 28.9037 42.5883 29.099 42.4668 29.2321C42.3453 29.3652 42.1919 29.4318 42.0067 29.4318C41.8129 29.4318 41.6566 29.366 41.538 29.2343C41.4193 29.1027 41.36 28.9095 41.36 28.6549V23.7504C41.36 23.4668 41.4251 23.2643 41.5553 23.1427C41.6855 23.0212 41.8924 22.9604 42.176 22.9604H43.8296C44.3187 22.9604 44.6948 22.9981 44.9581 23.0733C45.2185 23.1456 45.4435 23.2657 45.633 23.4335C45.8226 23.6014 45.9665 23.8068 46.0649 24.0498C46.1633 24.2929 46.2125 24.5663 46.2125 24.8702C46.2125 25.5183 46.0128 26.0095 45.6135 26.3437C45.2142 26.6779 44.6196 26.845 43.8296 26.845ZM42.6491 23.9283H43.5171C44.093 23.9283 44.4734 24.0224 44.6586 24.2104C44.8236 24.3869 44.906 24.6155 44.906 24.8962C44.906 25.1306 44.8525 25.3201 44.7454 25.4648C44.6384 25.6095 44.4829 25.7136 44.2789 25.7773C44.0749 25.8409 43.821 25.8728 43.5171 25.8728H42.6491V23.9283Z" fill="white"/>
</svg>
