<svg width="88" height="52" viewBox="0 0 88 52" fill="none" xmlns="http://www.w3.org/2000/svg">
<rect width="88" height="52" rx="8" fill="#F78D9D"/>
<path fill-rule="evenodd" clip-rule="evenodd" d="M46.3268 23.1634C46.3268 26.0153 44.0153 28.3268 41.1634 28.3268C38.3115 28.3268 36 26.0153 36 23.1634C36 20.3115 38.3115 18 41.1634 18C44.0153 18 46.3268 20.3115 46.3268 23.1634ZM45.4723 28.8865C44.2733 29.7907 42.781 30.3268 41.1634 30.3268C37.2069 30.3268 34 27.1198 34 23.1634C34 19.2069 37.2069 16 41.1634 16C45.1198 16 48.3268 19.2069 48.3268 23.1634C48.3268 24.781 47.7907 26.2733 46.8865 27.4723L52.0501 32.6359C52.4407 33.0264 52.4407 33.6596 52.0501 34.0501C51.6596 34.4407 51.0264 34.4407 50.6359 34.0501L45.4723 28.8865Z" fill="white"/>
</svg>
