<svg width="88" height="52" viewBox="0 0 88 52" fill="none" xmlns="http://www.w3.org/2000/svg">
<rect width="88" height="52" rx="8" fill="#5DB5C0"/>
<path fill-rule="evenodd" clip-rule="evenodd" d="M44 24.3333C46.7614 24.3333 49 22.0947 49 19.3333C49 16.5718 46.7614 14.3333 44 14.3333C41.2386 14.3333 39 16.5718 39 19.3333C39 22.0947 41.2386 24.3333 44 24.3333ZM37.2775 27.4012C35.3334 27.9783 34 29.7649 34 31.7929C34 34.323 36.0511 36.3741 38.5812 36.3741H49.4069C51.9436 36.3741 54 34.3177 54 31.781C54 29.7576 52.676 27.9726 50.7397 27.3855L45.5419 25.8094C44.6055 25.5254 43.6063 25.5225 42.6682 25.801L37.2775 27.4012Z" fill="white"/>
</svg>
