<svg width="88" height="52" viewBox="0 0 88 52" fill="none" xmlns="http://www.w3.org/2000/svg">
<rect width="88" height="52" rx="8" fill="#88C39C"/>
<path fill-rule="evenodd" clip-rule="evenodd" d="M39.5295 16C38.425 16 37.5295 16.8954 37.5295 18V19.5294H36C34.8954 19.5294 34 20.4248 34 21.5294V34C34 35.1046 34.8954 36 36 36H48.4706C49.5752 36 50.4706 35.1046 50.4706 34V32.4706H52.0001C53.1047 32.4706 54.0001 31.5752 54.0001 30.4706V18C54.0001 16.8954 53.1047 16 52.0001 16H39.5295ZM49.1826 20.0528L43.9181 20.0524C43.4714 20.0524 43.1022 19.7205 43.0438 19.2898L43.0357 19.1701C43.0357 18.7234 43.3677 18.3542 43.7983 18.2958L43.9181 18.2877H51.2981C51.529 18.2837 51.7611 18.3698 51.9373 18.546C52.1161 18.7248 52.2022 18.9613 52.1954 19.1956V26.565C52.1954 27.0523 51.8003 27.4474 51.313 27.4474C50.8663 27.4474 50.4972 27.1154 50.4387 26.6847L50.4307 26.565L50.4315 21.2997L44.0358 27.6954C43.6912 28.0399 43.1325 28.0399 42.788 27.6954C42.4747 27.3821 42.4462 26.8919 42.7025 26.5465L42.788 26.4475L49.1826 20.0528ZM37.5296 31.4118V19.5491H36.1178V31.4118L36.124 31.5882C36.2145 32.8703 37.2833 33.8823 38.5884 33.8823H50.4523V32.4706H38.5884L38.4556 32.4623C37.9335 32.397 37.5296 31.9515 37.5296 31.4118Z" fill="white"/>
</svg>
