<svg width="88" height="52" viewBox="0 0 88 52" fill="none" xmlns="http://www.w3.org/2000/svg">
<rect width="88" height="52" rx="8" fill="#5DB5C0"/>
<path d="M43.6023 12.0715C41.4232 12.0278 39.3957 12.9852 39.3381 15.8719L39.1738 32.964C39.0786 37.7384 41.7324 38.9743 44.7589 38.9743C47.7854 38.9743 50.3933 37.9652 50.4706 34.0952L50.4706 21.002L49.1459 21.002L49.1459 33.9626C49.0949 36.5204 47.1643 37.6692 44.8361 37.6692C42.0636 37.6692 40.4411 35.9987 40.499 33.0971L40.6632 16.004C40.6632 16.004 40.6559 13.3371 43.5896 13.3959C46.5234 13.4548 46.4702 16.1205 46.4609 16.5848L46.4609 28.9766C46.4609 30 45.8927 30.7313 44.8488 30.7313C43.805 30.7313 43.381 29.7889 43.3893 28.9766L43.3893 21.002L42.0636 21.002L42.0636 28.9766C42.0493 30.5192 43.1643 32.0558 44.8361 32.0558C46.508 32.0558 47.6495 30.543 47.6643 29L47.7855 16.7174C47.8501 13.4814 46.4419 12.1284 43.6023 12.0715Z" fill="white"/>
</svg>
