<svg width="88" height="52" viewBox="0 0 88 52" fill="none" xmlns="http://www.w3.org/2000/svg">
<rect width="88" height="52" rx="8" fill="#5DB5C0"/>
<path d="M55.6666 19.7385C54.8083 20.0897 53.8851 20.3272 52.9169 20.4333C53.9055 19.8867 54.6641 19.0219 55.0222 17.9896C54.0972 18.496 53.0722 18.8634 51.9823 19.0614C51.109 18.2031 49.8648 17.6667 48.4872 17.6667C45.8439 17.6667 43.7 19.6452 43.7 22.0847C43.7 22.4309 43.7425 22.768 43.8246 23.0915C39.8461 22.9074 36.3185 21.1486 33.9573 18.4749C33.5453 19.1273 33.309 19.8867 33.309 20.6963C33.309 22.2286 34.1547 23.5815 35.4385 24.3735C34.6542 24.3508 33.9155 24.1521 33.2704 23.8203C33.27 23.8391 33.27 23.8579 33.27 23.8763C33.27 26.0169 34.9208 27.8024 37.1104 28.2079C36.7091 28.3094 36.2853 28.3631 35.8494 28.3631C35.5403 28.3631 35.2407 28.3358 34.9487 28.2844C35.5577 30.0391 37.3253 31.3165 39.4206 31.3524C37.7819 32.5375 35.718 33.2436 33.4746 33.2436C33.089 33.2436 32.707 33.2229 32.3333 33.1817C34.4507 34.4356 36.9676 35.1667 39.6708 35.1667C48.4761 35.1667 53.2914 28.4349 53.2914 22.5963C53.2914 22.4049 53.2868 22.2141 53.2775 22.025C54.2136 21.4023 55.025 20.6244 55.6666 19.7385Z" fill="white"/>
</svg>
