<svg width="88" height="52" viewBox="0 0 88 52" fill="none" xmlns="http://www.w3.org/2000/svg">
<rect width="88" height="52" rx="8" fill="#CCA7D8"/>
<path fill-rule="evenodd" clip-rule="evenodd" d="M37.4501 16.525C38.0858 16.2779 38.8128 16.109 39.8775 16.0606C40.9445 16.0113 41.2846 16 44.0012 16C46.717 16 47.0579 16.0121 48.1242 16.0606C49.188 16.1082 49.915 16.2779 50.5516 16.525C51.2083 16.7803 51.7665 17.1228 52.3222 17.6785C52.878 18.2351 53.2197 18.7924 53.4757 19.4499C53.7229 20.0856 53.8918 20.8126 53.9402 21.8772C53.9887 22.9435 54 23.2843 54 26C54 28.7157 53.9887 29.0557 53.9402 30.1228C53.8926 31.1874 53.7229 31.9144 53.4757 32.5501C53.2197 33.2076 52.878 33.7658 52.3222 34.3215C51.7657 34.8772 51.2083 35.2189 50.5508 35.475C49.915 35.7221 49.188 35.891 48.1233 35.9394C47.0571 35.9887 46.717 36 44.0004 36C41.2846 36 40.9445 35.9879 39.8775 35.9394C38.8128 35.891 38.0866 35.7221 37.4501 35.475C36.7917 35.2189 36.2343 34.8772 35.6786 34.3215C35.122 33.7658 34.7803 33.2076 34.5251 32.5501C34.2779 31.9144 34.1091 31.1874 34.0606 30.1228C34.0113 29.0565 34 28.7157 34 26C34 23.2843 34.0113 22.9435 34.0606 21.8772C34.1091 20.8126 34.2779 20.0856 34.5251 19.4499C34.7803 18.7916 35.1228 18.2342 35.6786 17.6785C36.2351 17.1228 36.7925 16.7803 37.4501 16.525ZM39.9602 34.1397C38.9852 34.0953 38.4553 33.933 38.1031 33.7956C37.6362 33.6139 37.3034 33.3974 36.9528 33.0477C36.603 32.6979 36.3857 32.3651 36.2048 31.8982C36.0675 31.546 35.9051 31.0162 35.8607 30.0412C35.8122 28.9871 35.8025 28.6704 35.8025 26C35.8025 23.3296 35.813 23.0137 35.8607 21.9588C35.9051 20.9838 36.0683 20.4548 36.2048 20.1018C36.3865 19.6349 36.603 19.3021 36.9528 18.9515C37.3026 18.6018 37.6354 18.3845 38.1031 18.2036C38.4553 18.0662 38.9852 17.9039 39.9602 17.8595C41.0143 17.811 41.331 17.8013 44.0007 17.8013C46.6713 17.8013 46.9871 17.8118 48.0421 17.8595C49.0171 17.9039 49.5462 18.067 49.8992 18.2036C50.3661 18.3845 50.6989 18.6018 51.0495 18.9515C51.3993 19.3013 51.6157 19.6349 51.7975 20.1018C51.9348 20.454 52.0972 20.9838 52.1416 21.9588C52.1901 23.0137 52.1998 23.3296 52.1998 26C52.1998 28.6696 52.1901 28.9863 52.1416 30.0412C52.0972 31.0162 51.934 31.546 51.7975 31.8982C51.6157 32.3651 51.3993 32.6979 51.0495 33.0477C50.6997 33.3974 50.3661 33.6139 49.8992 33.7956C49.547 33.933 49.0171 34.0953 48.0421 34.1397C46.9879 34.1882 46.6713 34.1979 44.0007 34.1979C41.331 34.1979 41.0143 34.1882 39.9602 34.1397ZM49.3393 21.8619C48.6761 21.8619 48.1389 21.3239 48.1389 20.6616C48.1389 19.9992 48.6761 19.462 49.3393 19.462C50.0025 19.462 50.5397 19.9992 50.5397 20.6616C50.5397 21.3239 50.0017 21.8619 49.3393 21.8619ZM38.865 26C38.865 28.836 41.1639 31.1349 44.0001 31.1349C46.8362 31.1349 49.1352 28.836 49.1352 26C49.1352 23.164 46.8362 20.8651 44.0001 20.8651C41.1639 20.8651 38.865 23.164 38.865 26ZM40.6675 26C40.6675 24.1591 42.1595 22.6664 44.0004 22.6664C45.8414 22.6664 47.3341 24.1591 47.3341 26C47.3341 27.8409 45.8414 29.3336 44.0004 29.3336C42.1595 29.3336 40.6675 27.8409 40.6675 26Z" fill="white"/>
</svg>
