<svg width="88" height="52" viewBox="0 0 88 52" fill="none" xmlns="http://www.w3.org/2000/svg">
<rect width="88" height="52" rx="8" fill="#FF9C8C"/>
<path fill-rule="evenodd" clip-rule="evenodd" d="M36.25 16C35.0074 16 34 17.0074 34 18.25V33.75C34 34.9926 35.0074 36 36.25 36H51.75C52.9926 36 54 34.9926 54 33.75V18.25C54 17.0074 52.9926 16 51.75 16H36.25ZM43.4592 21.1944L39.3041 24.6329C39.1115 24.7923 39 25.0285 39 25.2776V30.1608C39 30.6243 39.3784 31 39.8451 31H48.1549C48.6216 31 49 30.6243 49 30.1608V25.2769C48.9996 25.0276 48.8881 24.792 48.6958 24.6328L44.5408 21.1944C44.2275 20.9352 43.7725 20.9352 43.4592 21.1944ZM40.25 25.349L44 22.25L47.75 25.349V29.75H40.25V25.349Z" fill="white"/>
</svg>
