<svg width="88" height="52" viewBox="0 0 88 52" fill="none" xmlns="http://www.w3.org/2000/svg">
<rect width="88" height="52" rx="8" fill="#88C39C"/>
<path fill-rule="evenodd" clip-rule="evenodd" d="M43.3036 14.3991C43.7709 14.3113 44.2291 14.3113 44.6964 14.3991C46.5691 14.7503 51.6582 15.7366 52.9873 16.3478C53.6127 16.6352 54 17.2326 54 17.8919V27.704C54 30.0589 52.7309 32.2503 50.6327 33.5139L44.9764 36.9206C44.38 37.2803 43.62 37.2803 43.0236 36.9206L37.3691 33.5139C35.2691 32.2503 34 30.0589 34 27.704V17.8919C34 17.2326 34.3873 16.6352 35.0145 16.3478C36.3418 15.7366 41.4309 14.7503 43.3036 14.3991ZM49.3711 20.9291C48.9508 20.7159 48.4159 20.8461 48.1762 21.22L43.2484 28.9047L39.9285 25.4273L39.8375 25.345C39.5164 25.0946 39.029 25.0845 38.6937 25.3378C38.325 25.6163 38.2799 26.1081 38.5931 26.4361L42.723 30.7619L42.8123 30.8429C43.2192 31.1632 43.8722 31.0796 44.1517 30.6435L49.6981 21.992L49.7501 21.8966C49.9115 21.5406 49.7564 21.1245 49.3711 20.9291Z" fill="white"/>
</svg>
