<svg width="88" height="52" viewBox="0 0 88 52" fill="none" xmlns="http://www.w3.org/2000/svg">
<rect width="88" height="52" rx="8" fill="#85CEFF"/>
<path fill-rule="evenodd" clip-rule="evenodd" d="M49.744 21.0596C53.9355 21.0596 57.3334 24.4575 57.3334 28.649C57.3334 29.5793 57.166 30.4706 56.8597 31.2943L56.8591 34.8671C56.8591 35.335 56.505 35.7203 56.0502 35.7696L55.9513 35.7749L52.3605 35.7753C51.5449 36.0749 50.6635 36.2384 49.744 36.2384C47.5348 36.2384 45.546 35.2944 44.159 33.7878C47.4457 32.3612 49.744 29.087 49.744 25.2759C49.744 23.7829 49.3913 22.3722 48.7646 21.1227C49.085 21.0809 49.412 21.0596 49.744 21.0596ZM39.6046 16C44.5409 16 48.5425 20.0016 48.5425 24.9379C48.5425 29.8741 44.5409 33.8758 39.6046 33.8758C38.6419 33.8758 37.7147 33.7236 36.8458 33.4419L36.5228 33.3302L32.3426 33.3299L32.2284 33.3241C31.7026 33.2707 31.2845 32.8527 31.2311 32.3269L31.2254 32.2127L31.2248 28.0535C30.8639 27.0834 30.6667 26.0337 30.6667 24.9379C30.6667 20.0016 34.6684 16 39.6046 16ZM35.7263 24.4327C35.2606 24.4327 34.8831 24.8102 34.8831 25.2759C34.8831 25.7417 35.2606 26.1192 35.7263 26.1192C36.1921 26.1192 36.5696 25.7417 36.5696 25.2759C36.5696 24.8102 36.1921 24.4327 35.7263 24.4327ZM39.9427 24.4327C39.477 24.4327 39.0994 24.8102 39.0994 25.2759C39.0994 25.7417 39.477 26.1192 39.9427 26.1192C40.4084 26.1192 40.7859 25.7417 40.7859 25.2759C40.7859 24.8102 40.4084 24.4327 39.9427 24.4327ZM44.159 24.4327C43.6933 24.4327 43.3157 24.8102 43.3157 25.2759C43.3157 25.7417 43.6933 26.1192 44.159 26.1192C44.6247 26.1192 45.0023 25.7417 45.0023 25.2759C45.0023 24.8102 44.6247 24.4327 44.159 24.4327Z" fill="white"/>
</svg>
