<svg width="88" height="52" viewBox="0 0 88 52" fill="none" xmlns="http://www.w3.org/2000/svg">
<rect width="88" height="52" rx="8" fill="#CCA7D8"/>
<path fill-rule="evenodd" clip-rule="evenodd" d="M35.7493 19.7256H35.7646C35.7646 18.5884 36.6863 17.6667 37.8234 17.6667H53.6078C54.7449 17.6667 55.6666 18.5884 55.6666 19.7256V33.4511C55.6666 34.5882 54.7449 35.5099 53.6078 35.5099H34.3921C33.2549 35.5099 32.3333 34.5882 32.3333 33.4511V21.7844C32.3333 20.6472 33.2549 19.7256 34.3921 19.7256H35.7372L34.4683 19.7269V31.4685L34.4767 31.5724C34.5263 31.8767 34.7904 32.109 35.1088 32.109C35.4626 32.109 35.7493 31.8222 35.7493 31.4685V19.7256ZM35.7493 19.7256V19.7256L35.7372 19.7256H35.7493ZM48.3557 22.4707C48.3557 22.0874 48.0451 21.7768 47.6618 21.7768H39.1678L39.0652 21.7843C38.7306 21.8339 38.4739 22.1223 38.4739 22.4707C38.4739 22.8539 38.7846 23.1646 39.1678 23.1646H47.6618L47.7644 23.157C48.099 23.1075 48.3557 22.8191 48.3557 22.4707ZM47.6618 24.8269C48.0451 24.8269 48.3557 25.1376 48.3557 25.5208C48.3557 25.8692 48.099 26.1576 47.7644 26.2072L47.6618 26.2147H39.1678C38.7846 26.2147 38.4739 25.904 38.4739 25.5208C38.4739 25.1724 38.7306 24.884 39.0652 24.8344L39.1678 24.8269H47.6618Z" fill="white"/>
</svg>
