<svg width="88" height="52" viewBox="0 0 88 52" fill="none" xmlns="http://www.w3.org/2000/svg">
<rect width="88" height="52" rx="8" fill="#F78D9D"/>
<path fill-rule="evenodd" clip-rule="evenodd" d="M40.4706 20.0371H35.4706C34.6582 20.0371 34 20.7002 34 21.5186V33.963C34 34.7814 34.6582 35.4445 36.0588 35.4445H53.1176C53.3418 35.4445 54 34.7814 54 33.963V21.5186C54 20.7002 53.3418 20.0371 52.5294 20.0371H47.5294L45.1765 17.6667H42.8235L40.4706 20.0371ZM39.2898 27.7408C39.2898 25.1201 41.3986 22.9956 44.0001 22.9956C46.6015 22.9956 48.7104 25.1201 48.7104 27.7408C48.7104 30.2784 46.7287 32.3638 44.2076 32.4813L44.0001 32.486C41.3986 32.486 39.2898 30.3615 39.2898 27.7408ZM47.5251 27.7408C47.5251 25.7796 45.9469 24.1897 44.0001 24.1897C42.0532 24.1897 40.475 25.7796 40.475 27.7408C40.475 29.702 42.0532 31.2919 43.9864 31.2921L44.1665 31.288C46.0419 31.2005 47.5251 29.6397 47.5251 27.7408Z" fill="white"/>
</svg>
